<?xml version="1.0" encoding="iso-8859-1"?>
<!-- Generator: Adobe Illustrator 19.0.0, SVG Export Plug-In . SVG Version: 6.00 Build 0)  -->
<svg version="1.1" id="Capa_1" xmlns="http://www.w3.org/2000/svg" xmlns:xlink="http://www.w3.org/1999/xlink" x="0px" y="0px"
	 viewBox="0 0 464 464" style="enable-background:new 0 0 464 464;" xml:space="preserve">
<path style="fill:#DE4C3C;" d="M8,64h448c4.418,0,8,3.582,8,8v320c0,4.418-3.582,8-8,8H8c-4.418,0-8-3.582-8-8V72
	C0,67.582,3.582,64,8,64z"/>
<path style="fill:#CF4031;" d="M456,64h-56L64,400h392c4.418,0,8-3.582,8-8V72C464,67.582,460.418,64,456,64z"/>
<path style="fill:#DE4C3C;" d="M392,400H72l16-80h288L392,400z"/>
<path style="fill:#DEDEDE;" d="M416,288H48V136l24-24h320l24,24V288z"/>
<g>
	<path style="fill:#B3362D;" d="M424,360h16v16h-16V360z"/>
	<path style="fill:#B3362D;" d="M24,88h16v16H24V88z"/>
	<path style="fill:#B3362D;" d="M424,88h16v16h-16V88z"/>
	<path style="fill:#B3362D;" d="M24,360h16v16H24V360z"/>
	<path style="fill:#B3362D;" d="M120,360h16v16h-16V360z"/>
	<path style="fill:#B3362D;" d="M160,344h16v16h-16V344z"/>
	<path style="fill:#B3362D;" d="M328,360h16v16h-16V360z"/>
	<path style="fill:#B3362D;" d="M288,344h16v16h-16V344z"/>
</g>
<path style="fill:#2A7DB8;" d="M120,176h224c22.091,0,40,17.909,40,40l0,0c0,22.091-17.909,40-40,40H120c-22.091,0-40-17.909-40-40
	l0,0C80,193.909,97.909,176,120,176z"/>
<path style="fill:#C7C7C7;" d="M88,136h288v16H88V136z"/>
<g>
	<path style="fill:#4398D1;" d="M207.2,176H120c-22.091,0-40,17.909-40,40s17.909,40,40,40h87.2
		C218.955,230.629,218.955,201.371,207.2,176z"/>
	<path style="fill:#4398D1;" d="M384,216c0-22.091-17.909-40-40-40h-87.2c-11.755,25.371-11.755,54.629,0,80H344
		C366.091,256,384,238.091,384,216z"/>
</g>
<g>
	<path style="fill:#2A7DB8;" d="M120,168c-26.51,0-48,21.49-48,48s21.49,48,48,48s48-21.49,48-48
		C167.974,189.501,146.499,168.026,120,168z M128,246.864V232h-16v14.864c-11.195-2.927-19.937-11.669-22.864-22.864H104v-16H89.136
		c2.927-11.195,11.669-19.937,22.864-22.864V200h16v-14.864c11.195,2.927,19.937,11.669,22.864,22.864H136v16h14.864
		C147.937,235.195,139.195,243.937,128,246.864z"/>
	<path style="fill:#2A7DB8;" d="M344,168c-26.51,0-48,21.49-48,48s21.49,48,48,48s48-21.49,48-48
		C391.974,189.501,370.499,168.026,344,168z M352,246.864V232h-16v14.864c-11.195-2.927-19.937-11.669-22.864-22.864H328v-16
		h-14.864c2.927-11.195,11.669-19.937,22.864-22.864V200h16v-14.864c11.195,2.927,19.937,11.669,22.864,22.864H360v16h14.864
		C371.937,235.195,363.195,243.937,352,246.864z"/>
</g>
<g>
</g>
<g>
</g>
<g>
</g>
<g>
</g>
<g>
</g>
<g>
</g>
<g>
</g>
<g>
</g>
<g>
</g>
<g>
</g>
<g>
</g>
<g>
</g>
<g>
</g>
<g>
</g>
<g>
</g>
</svg>
